<svg width="26" height="18" viewBox="0 0 26 18" fill="none" xmlns="http://www.w3.org/2000/svg">
<path d="M2.53274 12.8076H-0.000244141V15.3446H2.53274V12.8076Z" fill="#FFFDF7"/>
<path d="M12.6664 10.2686H10.1334V12.8056H12.6664V10.2686Z" fill="#FFFDF7"/>
<path d="M20.2669 10.2686H17.7339V12.8056H20.2669V10.2686Z" fill="#FFFDF7"/>
<path d="M5.06765 5.19336H2.53467V7.73038H5.06765V5.19336Z" fill="#FFFDF7"/>
<path d="M5.06765 2.65625H2.53467V5.19327H5.06765V2.65625Z" fill="#FFFDF7"/>
<path d="M5.06765 0.119141H2.53467V2.65616H5.06765V0.119141Z" fill="#FFFDF7"/>
<path d="M17.7336 5.19336H15.2006V7.73038H17.7336V5.19336Z" fill="#FFFDF7"/>
<path d="M17.7336 2.65625H15.2006V5.19327H17.7336V2.65625Z" fill="#FFFDF7"/>
<path d="M17.7336 0.119141H15.2006V2.65616H17.7336V0.119141Z" fill="#FFFDF7"/>
<path d="M15.2007 15.3447H12.6677V17.8817H15.2007V15.3447Z" fill="#FFFDF7"/>
<path d="M12.6664 15.3447H10.1334V17.8817H12.6664V15.3447Z" fill="#FFFDF7"/>
<path d="M17.7336 15.3447H15.2006V17.8817H17.7336V15.3447Z" fill="#FFFDF7"/>
<path d="M22.7996 15.3447H20.2666V17.8817H22.7996V15.3447Z" fill="#FFFDF7"/>
<path d="M20.2669 15.3447H17.7339V17.8817H20.2669V15.3447Z" fill="#FFFDF7"/>
<path d="M10.1326 15.3447H7.59961V17.8817H10.1326V15.3447Z" fill="#FFFDF7"/>
<path d="M7.60037 15.3447H5.06738V17.8817H7.60037V15.3447Z" fill="#FFFDF7"/>
<path d="M5.06765 15.3447H2.53467V17.8817H5.06765V15.3447Z" fill="#FFFDF7"/>
<path d="M25.3339 15.3447H22.8009V17.8817H25.3339V15.3447Z" fill="#FFFDF7"/>
</svg>
