<svg width="25" height="24" viewBox="0 0 25 24" fill="none" xmlns="http://www.w3.org/2000/svg">
<path fill-rule="evenodd" clip-rule="evenodd" d="M10.3334 1.41211C9.2288 1.41211 8.33337 2.30754 8.33337 3.41211V17.2945C8.33337 18.399 9.22881 19.2945 10.3334 19.2945H11.7402C12.2707 19.2945 12.7794 19.0837 13.1545 18.7087L13.3946 18.4685C13.7697 18.0934 14.2784 17.8827 14.8089 17.8827H17.8579C18.3883 17.8827 18.897 18.0934 19.2721 18.4685L19.5123 18.7087C19.8874 19.0837 20.3961 19.2945 20.9265 19.2945H22.3334C23.4379 19.2945 24.3334 18.399 24.3334 17.2945V3.41211C24.3334 2.30754 23.4379 1.41211 22.3334 1.41211H10.3334ZM10.2746 2.35329C9.72227 2.35329 9.27455 2.80101 9.27455 3.35329V15.4709C9.27455 16.0232 9.72227 16.4709 10.2746 16.4709H22.3922C22.9445 16.4709 23.3922 16.0232 23.3922 15.4709V3.35329C23.3922 2.80101 22.9445 2.35329 22.3922 2.35329H10.2746Z" fill="#FFFDF7"/>
<path d="M10.2157 3.54395C10.2157 3.40587 10.3276 3.29395 10.4657 3.29395H22.201C22.3391 3.29395 22.451 3.40587 22.451 3.54395V15.2792C22.451 15.4173 22.3391 15.5292 22.201 15.5292H10.4657C10.3276 15.5292 10.2157 15.4173 10.2157 15.2792V3.54395Z" fill="#FFFDF7"/>
<path d="M3.76863 13.3063C4.27226 12.9286 4.56866 12.3358 4.56866 11.7063V1.97211C4.56866 1.66283 4.81938 1.41211 5.12866 1.41211H6.39219C6.94448 1.41211 7.39219 1.85982 7.39219 2.41211V17.2356C7.39219 18.8925 8.73534 20.2356 10.3922 20.2356H12.5324C12.8569 20.2356 13.1682 20.1067 13.3976 19.8773L14.0927 19.1822C14.3221 18.9528 14.6333 18.8239 14.9578 18.8239H17.7089C18.0334 18.8239 18.3446 18.9528 18.5741 19.1822L19.2691 19.8773C19.4986 20.1067 19.8098 20.2356 20.1343 20.2356H23.833C24.1091 20.2356 24.333 20.4595 24.333 20.7356V22.0592C24.333 22.6115 23.8853 23.0592 23.333 23.0592H1.80396C1.25167 23.0592 0.803955 22.6115 0.803955 22.0592L0.803955 16.0298C0.803955 15.715 0.952155 15.4186 1.20397 15.2298L3.76863 13.3063Z" fill="#FFFDF7"/>
<path d="M0.333374 1.94141C0.333374 1.38912 0.78109 0.941406 1.33337 0.941406L2.62749 0.941407C3.17978 0.941407 3.62749 1.38912 3.62749 1.94141V11.7209C3.62749 12.0439 3.47153 12.3469 3.20873 12.5346L1.12399 14.0237C0.793059 14.2601 0.333374 14.0236 0.333374 13.6169V1.94141Z" fill="#FFFDF7"/>
</svg>
