<svg width="24" height="24" viewBox="0 0 24 24" fill="none" xmlns="http://www.w3.org/2000/svg">
<path d="M18.3529 18.5107C16.2441 19.6157 13.8867 20.1682 11.5201 19.7078C9.89023 19.3855 8.16823 18.612 7.10926 17.3043C6.06869 15.9967 5.71877 14.2931 6.02265 12.6724C6.48308 10.2322 8.61945 8.7496 10.8019 7.92083C10.9216 7.87478 10.9124 7.70903 10.7927 7.6814C10.7006 7.66299 10.6085 7.64457 10.5164 7.62615C7.74464 7.1381 5.01892 8.62068 3.55477 10.932C2.25637 12.9579 1.91565 15.5363 2.3945 17.8661C2.47737 18.2805 2.59708 18.6948 2.73521 19.0908C3.34297 20.776 4.47562 22.2586 6.12394 23.0413C6.25286 23.0965 6.36337 22.9216 6.25286 22.8387C5.70035 22.2954 5.23072 21.6968 4.85317 21.0522C4.54929 20.555 4.29145 20.0301 4.08886 19.4776C4.06124 19.4223 4.14411 19.3763 4.18095 19.4223C5.39647 21.0338 7.20134 22.1665 9.07067 22.7558C10.3967 23.2052 11.7467 23.4557 13.1482 23.3267C14.2477 23.2255 15.3334 22.9787 16.3657 22.5882C18.3584 21.8359 20.1375 20.5513 21.4709 18.8901C22.8254 17.2012 23.6929 15.1505 23.971 13.004C23.9811 12.9257 23.9903 12.8483 23.9986 12.7701C24.0161 12.6098 23.8025 12.5509 23.7343 12.6973C22.5998 15.1551 20.7489 17.2408 18.3529 18.5107Z" fill="#FFFDF7"/>
<path d="M5.64682 5.48855C7.75557 4.38352 10.1129 3.83101 12.4795 4.29144C14.1094 4.61374 15.8314 5.38726 16.8904 6.69487C17.931 8.00249 18.2809 9.70607 17.977 11.3268C17.5166 13.767 15.3802 15.2496 13.1978 16.0784C13.0781 16.1244 13.0873 16.2902 13.207 16.3178C13.2991 16.3362 13.3912 16.3547 13.4833 16.3731C16.255 16.8611 18.9807 15.3785 20.4449 13.0672C21.7433 11.0413 22.084 8.46291 21.6052 6.13315C21.5223 5.71876 21.4026 5.30438 21.2645 4.90841C20.6567 3.22324 19.5241 1.74066 17.8757 0.957937C17.7468 0.902685 17.6363 1.07765 17.7468 1.16053C18.2993 1.70383 18.769 2.30239 19.1465 2.94699C19.4504 3.44425 19.7082 3.96914 19.9108 4.52165C19.9384 4.5769 19.8556 4.62294 19.8187 4.5769C18.6032 2.9654 16.7983 1.83275 14.929 1.2434C13.603 0.794024 12.253 0.543551 10.8515 0.672471C9.75197 0.773766 8.66629 1.02056 7.63402 1.411C5.64129 2.16334 3.86221 3.44793 2.52881 5.10916C1.17424 6.79801 0.306798 8.84875 0.0287013 10.9953C0.0185719 11.0735 0.00936344 11.1509 0.00107577 11.2292C-0.0164204 11.3894 0.197217 11.4483 0.26536 11.3019C1.39985 8.84415 3.25076 6.75841 5.64682 5.48855Z" fill="#FFFDF7"/>
<path d="M14.7745 12.1262C14.8325 12.1078 14.8684 12.0535 14.8684 11.9927C14.8684 11.9319 14.8297 11.8804 14.7745 11.8592L13.547 11.4411C13.0967 11.2864 12.7596 10.9052 12.6666 10.4365L12.1473 7.8682C12.1344 7.80282 12.0773 7.75586 12.0101 7.75586C11.9428 7.75586 11.8848 7.80282 11.8719 7.8682L11.3535 10.4365C11.2596 10.9043 10.9235 11.2864 10.4732 11.4411L9.24566 11.8592C9.18765 11.8776 9.15173 11.9329 9.15173 11.9927C9.15173 12.0526 9.19041 12.1051 9.24566 12.1262L10.4732 12.5452C10.9244 12.6999 11.2605 13.0812 11.3535 13.5499L11.8719 16.1182C11.8848 16.1835 11.9428 16.2305 12.0101 16.2305C12.0773 16.2305 12.1353 16.1835 12.1473 16.1182L12.6666 13.5499C12.7606 13.0821 13.0967 12.6999 13.547 12.5452L14.7745 12.1262Z" fill="#FFFDF7"/>
</svg>
